<svg width="20" height="20" viewBox="0 0 20 20" fill="none" xmlns="http://www.w3.org/2000/svg">
<path d="M4.88369 6.51172C3.55811 6.51172 2.20927 6.51172 0.883693 6.51172C0.651134 6.53497 0.465088 6.74428 0.465088 6.97684V19.535C0.465088 19.7675 0.697646 20.0001 0.930204 20.0001H4.88369C5.11625 20.0001 5.34881 19.7675 5.34881 19.535V6.97684C5.34881 6.74428 5.11625 6.51172 4.88369 6.51172Z" fill="white"/>
<path d="M2.7907 0C1.25581 0 0 1.25581 0 2.7907C0 4.32558 1.25581 5.58139 2.7907 5.58139C4.32558 5.58139 5.58139 4.32558 5.58139 2.7907C5.58139 1.25581 4.32558 0 2.7907 0Z" fill="white"/>
<path d="M20 11.3952C20 9.83708 19.7209 8.48825 18.8837 7.53476C18.0465 6.55802 16.7209 6.04639 14.8837 6.04639C13.3953 6.04639 12.3953 6.67429 11.6279 7.39522V6.97662C11.6279 6.74406 11.3953 6.5115 11.1628 6.5115H7.44186C7.2093 6.5115 6.97675 6.74406 6.97675 6.97662V19.5348C6.97675 19.7673 7.2093 19.9999 7.44186 19.9999H11.3953C11.6279 19.9999 11.8605 19.7673 11.8605 19.5348V12.558C11.8605 11.9766 12.0465 11.4185 12.3256 11.0231C12.6047 10.6278 12.9302 10.465 13.2558 10.465H13.7209C14.0465 10.465 14.3953 10.651 14.6512 11.0231C14.907 11.3952 15.1163 11.9534 15.1163 12.558V19.5348C15.1163 19.7673 15.3488 19.9999 15.5814 19.9999H19.5349C19.7674 19.9999 20 19.7673 20 19.5348V11.3952Z" fill="white"/>
</svg>
