<svg width="99" height="24" viewBox="0 0 99 24" fill="none" xmlns="http://www.w3.org/2000/svg">
<g clip-path="url(#clip0)">
<path d="M12.1216 1.02593V8.81104L16.3198 5.08873V1.00323L12.1216 1.02593Z" fill="#37DCD2"/>
<path d="M12.1216 11.5347V13.8771C12.1216 17.2725 10.3423 19.9327 6.52701 19.9327C5.32152 19.9868 4.12496 19.7006 3.07207 19.1065L0 21.8256C1.68468 23.1875 3.93694 23.9092 6.52701 23.9092C12.6622 23.9092 16.3198 19.6785 16.3198 13.8771V7.81238L12.1216 11.5347Z" fill="#00376E"/>
<path d="M33.0451 6.18725C32.2793 4.90259 30.1802 3.68602 27.7658 3.68602C24.6487 3.68602 23.1532 4.99338 23.1532 6.66846C23.1532 8.62042 25.4415 9.16509 28.1081 9.48745C32.7523 10.064 37.0766 11.3032 37.0766 16.6325C37.0766 21.6259 32.6892 23.7821 27.7298 23.7821C23.1802 23.7821 19.6802 22.3703 18.027 18.2667L21.5271 16.4509C22.5135 18.9204 25.0901 20.0098 27.7928 20.0098C30.4955 20.0098 32.9145 19.0657 32.9145 16.6325C32.9145 14.5171 30.7208 13.6546 27.7658 13.3323C23.2162 12.7876 19.018 11.571 19.018 6.5232C19.018 1.92472 23.5361 0.0317761 27.6352 0C31.1036 0 34.6847 0.994137 36.3829 4.45319L33.0451 6.18725Z" fill="#00376E"/>
<path d="M45.2658 4.61662H38.2072V0.767181H56.527V4.61662H49.464V23.2056H45.2658V4.61662Z" fill="#00376E"/>
<path d="M77.3153 20.668C76.1966 21.7631 74.8719 22.6219 73.419 23.1941C71.9662 23.7662 70.415 24.0402 68.8558 24C60.5901 24 57.0902 18.2622 57.0586 12.429C57.0271 6.59577 60.8108 0.62643 68.8558 0.62643C70.3742 0.621625 71.8777 0.92048 73.2804 1.50568C74.6831 2.09087 75.9565 2.95077 77.027 4.03555L74.2296 6.75922C72.7805 5.37503 70.8525 4.61597 68.8558 4.64383C63.4776 4.64383 61.1577 8.67941 61.1982 12.429C61.2388 16.1785 63.3606 20.028 68.8558 20.028C70.9391 20.0152 72.9395 19.2037 74.4505 17.7582L77.3153 20.668Z" fill="#00376E"/>
<path d="M98.1715 1.15301L88.2882 11.8888L99.0093 23.2056V23.4598H93.8155L84.4952 13.523V23.4598H80.297V1.02591H84.4952V10.5133L92.9548 1.02591H98.1715V1.15301Z" fill="#00376E"/>
</g>
<defs>
<clipPath id="clip0">
<rect width="99" height="24" fill="white"/>
</clipPath>
</defs>
</svg>
