<svg width="20" height="20" viewBox="0 0 20 20" fill="none" xmlns="http://www.w3.org/2000/svg">
<path d="M17.7857 0.354696C17 0.711839 8.14286 4.8547 0.928571 8.21184C0.357143 8.49755 0 9.06898 0 9.64041C0 10.2118 0.428571 10.6404 0.928571 10.7118C1.35714 10.7833 5.64286 11.4261 5.64286 11.4261L6.85714 18.569L7.5 15.4261L6.57143 10.7118L15.2857 4.28327L8.14286 12.1404L10.6429 14.9976C10.7857 15.1404 13.8571 18.7118 14.0714 18.9261C14.4286 19.2833 15 19.9976 15.2857 19.9976C15.7857 19.9976 16.2857 19.2833 16.5 18.2118C16.7143 17.2118 18.1429 10.2833 19.9286 1.06898C20.1429 0.0689818 19.2143 -0.35959 17.7857 0.354696Z" fill="white"/>
</svg>
